<svg xmlns="http://www.w3.org/2000/svg" viewBox="0 0 1000 540" width="1000" height="540">
<rect width="100%" height="100%" fill="#0B0F19"/>
<defs></defs>
<text x="40.0" y="35.0" font-family="system-ui, -apple-system, sans-serif" font-size="18" font-weight="bold" fill="#F8FAFC" text-anchor="start">Figure 5: Monte Carlo Parametric Uncertainty Quantification</text>
<text x="40.0" y="58.0" font-family="system-ui, -apple-system, sans-serif" font-size="12" font-weight="normal" fill="#94A3B8" text-anchor="start">Sensitivity to +/- 2% to +/- 20% structural mass/stiffness measurement noise (500 realizations per level)</text>
<rect x="40.0" y="80.0" width="920.0" height="420.0" fill="#1E293B" stroke="#334155" stroke-width="1" rx="8"/>
<rect x="120.0" y="120.0" width="780.0" height="300.0" fill="#0F172A" stroke="#475569" stroke-width="1" rx="0"/>
<line x1="120.0" y1="270.0" x2="900.0" y2="270.0" stroke="#38BDF8" stroke-width="2" stroke-dasharray="4,4" opacity="1.0"/>
<text x="140.0" y="260.0" font-family="system-ui, -apple-system, sans-serif" font-size="11" font-weight="bold" fill="#38BDF8" text-anchor="start">Nominal Prediction: 0.852% PIDR</text>
<polygon points="190.9,267.4 297.3,264.9 474.5,258.8 651.8,254.5 829.1,250.5 829.1,258.5 651.8,260.6 474.5,263.2 297.3,265.5 190.9,268.2" fill="#38BDF8" opacity="0.25" stroke="none"/>
<polyline points="190.9,270.0 297.3,269.9 474.5,269.0 651.8,267.9 829.1,267.2" fill="none" stroke="#F43F5E" stroke-width="2.5" opacity="1.0"/>
<line x1="190.9" y1="267.4" x2="190.9" y2="268.2" stroke="#38BDF8" stroke-width="2" stroke-dasharray="none" opacity="1.0"/>
<circle cx="190.9" cy="267.4" r="3.5" fill="#38BDF8" stroke="#0F172A" stroke-width="1" opacity="1.0"/>
<circle cx="190.9" cy="268.2" r="3.5" fill="#38BDF8" stroke="#0F172A" stroke-width="1" opacity="1.0"/>
<circle cx="190.9" cy="270.0" r="5.0" fill="#F43F5E" stroke="#0F172A" stroke-width="1" opacity="1.0"/>
<text x="190.9" y="440.0" font-family="system-ui, -apple-system, sans-serif" font-size="10" font-weight="normal" fill="#CBD5E1" text-anchor="middle">+/- 2% Noise</text>
<text x="190.9" y="456.0" font-family="system-ui, -apple-system, sans-serif" font-size="9" font-weight="normal" fill="#94A3B8" text-anchor="middle">CoV: 1.6%</text>
<line x1="297.3" y1="264.9" x2="297.3" y2="265.5" stroke="#38BDF8" stroke-width="2" stroke-dasharray="none" opacity="1.0"/>
<circle cx="297.3" cy="264.9" r="3.5" fill="#38BDF8" stroke="#0F172A" stroke-width="1" opacity="1.0"/>
<circle cx="297.3" cy="265.5" r="3.5" fill="#38BDF8" stroke="#0F172A" stroke-width="1" opacity="1.0"/>
<circle cx="297.3" cy="269.9" r="5.0" fill="#F43F5E" stroke="#0F172A" stroke-width="1" opacity="1.0"/>
<text x="297.3" y="440.0" font-family="system-ui, -apple-system, sans-serif" font-size="10" font-weight="normal" fill="#CBD5E1" text-anchor="middle">+/- 5% Noise</text>
<text x="297.3" y="456.0" font-family="system-ui, -apple-system, sans-serif" font-size="9" font-weight="normal" fill="#94A3B8" text-anchor="middle">CoV: 3.6%</text>
<line x1="474.5" y1="258.8" x2="474.5" y2="263.2" stroke="#38BDF8" stroke-width="2" stroke-dasharray="none" opacity="1.0"/>
<circle cx="474.5" cy="258.8" r="3.5" fill="#38BDF8" stroke="#0F172A" stroke-width="1" opacity="1.0"/>
<circle cx="474.5" cy="263.2" r="3.5" fill="#38BDF8" stroke="#0F172A" stroke-width="1" opacity="1.0"/>
<circle cx="474.5" cy="269.0" r="5.0" fill="#F43F5E" stroke="#0F172A" stroke-width="1" opacity="1.0"/>
<text x="474.5" y="440.0" font-family="system-ui, -apple-system, sans-serif" font-size="10" font-weight="normal" fill="#CBD5E1" text-anchor="middle">+/- 10% Noise</text>
<text x="474.5" y="456.0" font-family="system-ui, -apple-system, sans-serif" font-size="9" font-weight="normal" fill="#94A3B8" text-anchor="middle">CoV: 6.6%</text>
<line x1="651.8" y1="254.5" x2="651.8" y2="260.6" stroke="#38BDF8" stroke-width="2" stroke-dasharray="none" opacity="1.0"/>
<circle cx="651.8" cy="254.5" r="3.5" fill="#38BDF8" stroke="#0F172A" stroke-width="1" opacity="1.0"/>
<circle cx="651.8" cy="260.6" r="3.5" fill="#38BDF8" stroke="#0F172A" stroke-width="1" opacity="1.0"/>
<circle cx="651.8" cy="267.9" r="5.0" fill="#F43F5E" stroke="#0F172A" stroke-width="1" opacity="1.0"/>
<text x="651.8" y="440.0" font-family="system-ui, -apple-system, sans-serif" font-size="10" font-weight="normal" fill="#CBD5E1" text-anchor="middle">+/- 15% Noise</text>
<text x="651.8" y="456.0" font-family="system-ui, -apple-system, sans-serif" font-size="9" font-weight="normal" fill="#94A3B8" text-anchor="middle">CoV: 9.0%</text>
<line x1="829.1" y1="250.5" x2="829.1" y2="258.5" stroke="#38BDF8" stroke-width="2" stroke-dasharray="none" opacity="1.0"/>
<circle cx="829.1" cy="250.5" r="3.5" fill="#38BDF8" stroke="#0F172A" stroke-width="1" opacity="1.0"/>
<circle cx="829.1" cy="258.5" r="3.5" fill="#38BDF8" stroke="#0F172A" stroke-width="1" opacity="1.0"/>
<circle cx="829.1" cy="267.2" r="5.0" fill="#F43F5E" stroke="#0F172A" stroke-width="1" opacity="1.0"/>
<text x="829.1" y="440.0" font-family="system-ui, -apple-system, sans-serif" font-size="10" font-weight="normal" fill="#CBD5E1" text-anchor="middle">+/- 20% Noise</text>
<text x="829.1" y="456.0" font-family="system-ui, -apple-system, sans-serif" font-size="9" font-weight="normal" fill="#94A3B8" text-anchor="middle">CoV: 10.9%</text>
</svg>